<svg width="35" height="35" viewBox="0 0 35 35" fill="none" xmlns="http://www.w3.org/2000/svg">
<path d="M14.7 15.8375C14.7729 15.3563 14.9333 14.9333 15.1375 14.5833C15.3125 14.2042 15.6333 13.8979 15.9979 13.6646C16.3479 13.4458 16.7708 13.3438 17.325 13.3292C17.6604 13.3438 17.9667 13.4021 18.2292 13.5188C18.5354 13.65 18.7979 13.8542 19.0021 14.0438C19.2062 14.2625 19.3667 14.525 19.4979 14.8167C19.6292 15.1083 19.6875 15.4292 19.6875 15.75H22.3125C22.2833 15.0646 22.1521 14.4375 21.875 13.8542C21.6562 13.3 21.3208 12.8042 20.8833 12.3958C20.4167 11.9875 19.9208 11.6667 19.3083 11.4333C18.6958 11.2 18.025 11.0979 17.2812 11.0979C16.3333 11.0979 15.5021 11.2583 14.8021 11.5938C14.1021 11.9292 13.5187 12.3958 13.0521 12.9354C12.5854 13.5042 12.2354 14.1604 12.0167 14.9188C11.7979 15.6771 11.6667 16.4646 11.6667 17.3104V17.7042C11.6667 18.55 11.7833 19.3375 12.0021 20.0958C12.2208 20.8542 12.5708 21.5104 13.0375 22.0646C13.5042 22.6042 14.0875 23.0708 14.7875 23.3917C15.4875 23.7125 16.3187 23.8875 17.2667 23.8875C17.9521 23.8875 18.5937 23.7708 19.1917 23.5521C19.7896 23.3333 20.3146 23.0271 20.7667 22.6042C21.2187 22.2396 21.5833 21.7875 21.875 21.2625C22.1083 20.7375 22.2687 20.1833 22.2833 19.5854H19.6875C19.6875 19.8917 19.5854 20.1688 19.4542 20.4167C19.3229 20.6938 19.1479 20.9125 18.9583 21.1021C18.7104 21.2917 18.4625 21.4375 18.1708 21.5396C17.8937 21.6417 17.6021 21.6708 17.2958 21.6854C16.7708 21.6708 16.3333 21.5688 15.9979 21.35C15.6333 21.1458 15.3125 20.8104 15.1375 20.4167C14.9333 20.0813 14.7729 19.6438 14.7 19.1625C14.6271 18.6813 14.5833 18.1854 14.5833 17.7042V17.3104C14.5833 16.7708 14.6271 16.3188 14.7 15.8375ZM17.5 2.91667C15.5849 2.91667 13.6885 3.29388 11.9192 4.02676C10.1499 4.75964 8.5422 5.83384 7.18802 7.18803C4.45311 9.92294 2.91666 13.6323 2.91666 17.5C2.91666 21.3677 4.45311 25.0771 7.18802 27.812C8.5422 29.1662 10.1499 30.2404 11.9192 30.9733C13.6885 31.7061 15.5849 32.0833 17.5 32.0833C21.3677 32.0833 25.0771 30.5469 27.812 27.812C30.5469 25.0771 32.0833 21.3677 32.0833 17.5C32.0833 15.5849 31.7061 13.6885 30.9732 11.9192C30.2404 10.1499 29.1662 8.54222 27.812 7.18803C26.4578 5.83384 24.8501 4.75964 23.0808 4.02676C21.3115 3.29388 19.4151 2.91667 17.5 2.91667ZM17.5 29.1667C11.0687 29.1667 5.83332 23.9313 5.83332 17.5C5.83332 11.0688 11.0687 5.83334 17.5 5.83334C23.9312 5.83334 29.1667 11.0688 29.1667 17.5C29.1667 23.9313 23.9312 29.1667 17.5 29.1667Z" fill="black"/>
</svg>
