<svg width="35" height="35" viewBox="0 0 35 35" fill="none" xmlns="http://www.w3.org/2000/svg">
<path d="M17.5 0C7.875 0 0 7.875 0 17.5C0 27.125 7.875 35 17.5 35C27.125 35 35 27.125 35 17.5C35 7.875 27.125 0 17.5 0ZM29.575 10.5H24.5C23.975 8.225 23.1 6.3 22.05 4.2C25.2 5.425 28 7.525 29.575 10.5ZM17.5 3.5C18.9 5.6 20.125 7.875 20.825 10.5H14.175C14.875 8.05 16.1 5.6 17.5 3.5ZM4.025 21C3.675 19.95 3.5 18.725 3.5 17.5C3.5 16.275 3.675 15.05 4.025 14H9.975C9.8 15.225 9.8 16.275 9.8 17.5C9.8 18.725 9.975 19.775 9.975 21H4.025ZM5.425 24.5H10.5C11.025 26.775 11.9 28.7 12.95 30.8C9.8 29.575 7 27.475 5.425 24.5ZM10.5 10.5H5.425C7.175 7.525 9.8 5.425 12.95 4.2C11.9 6.3 11.025 8.225 10.5 10.5ZM17.5 31.5C16.1 29.4 14.875 27.125 14.175 24.5H20.825C20.125 26.95 18.9 29.4 17.5 31.5ZM21.525 21H13.475C13.3 19.775 13.125 18.725 13.125 17.5C13.125 16.275 13.3 15.225 13.475 14H21.7C21.875 15.225 22.05 16.275 22.05 17.5C22.05 18.725 21.7 19.775 21.525 21ZM22.05 30.8C23.1 28.875 23.975 26.7751 24.5 24.5H29.575C28 27.475 25.2 29.575 22.05 30.8ZM25.2 21C25.375 19.775 25.375 18.725 25.375 17.5C25.375 16.275 25.2 15.225 25.2 14H31.15C31.5 15.05 31.6749 16.275 31.6749 17.5C31.6749 18.725 31.4999 19.95 31.15 21H25.2Z" fill="black"/>
</svg>
