<svg width="35" height="35" viewBox="0 0 35 35" fill="none" xmlns="http://www.w3.org/2000/svg">
<path d="M23.8636 15.9091C26.5682 15.9091 28.6364 13.8409 28.6364 11.1363C28.6364 8.4318 26.5682 6.36362 23.8636 6.36362C21.1591 6.36362 19.0909 8.4318 19.0909 11.1363C19.0909 13.8409 21.1591 15.9091 23.8636 15.9091ZM11.1364 15.9091C13.8409 15.9091 15.9091 13.8409 15.9091 11.1363C15.9091 8.4318 13.8409 6.36362 11.1364 6.36362C8.43182 6.36362 6.36364 8.4318 6.36364 11.1363C6.36364 13.8409 8.43182 15.9091 11.1364 15.9091ZM11.1364 19.0909C7.47727 19.0909 0 21 0 24.6591V28.6364H22.2727V24.6591C22.2727 21 14.7955 19.0909 11.1364 19.0909ZM23.8636 19.0909C23.3864 19.0909 22.9091 19.0909 22.2727 19.25C24.1818 20.5227 25.4545 22.4318 25.4545 24.6591V28.6364H35V24.6591C35 21 27.5227 19.0909 23.8636 19.0909Z" fill="black"/>
</svg>
