<svg width="57" height="57" viewBox="0 0 57 57" fill="none" xmlns="http://www.w3.org/2000/svg">
<g clip-path="url(#clip0)">
<circle cx="29" cy="29" r="35" fill="#FF7A00"/>
<path d="M28.5 3.5625C16.7438 3.5625 7.125 13.0031 7.125 24.7594V30.9937C7.125 31.1719 7.125 31.1719 7.125 31.35C7.125 31.5281 7.125 31.8844 7.125 32.0625C7.125 37.05 11.0438 40.9688 16.0312 40.9688C17.1 40.9688 17.8125 40.2562 17.8125 39.1875V24.9375C17.8125 23.8687 17.1 23.1562 16.0312 23.1562C14.0719 23.1562 12.1125 23.8687 10.6875 24.9375V24.5813C10.6875 14.9625 18.7031 7.125 28.5 7.125C38.2969 7.125 46.3125 14.9625 46.3125 24.7594V24.9375C44.8875 23.8687 42.9281 23.1562 40.9688 23.1562C39.9 23.1562 39.1875 23.8687 39.1875 24.9375V39.1875C39.1875 40.2562 39.9 40.9688 40.9688 40.9688C42.2156 40.9688 43.4625 40.6125 44.5312 40.2563C42.75 43.9969 39.5438 46.8469 35.625 48.45C35.625 48.2719 35.625 48.2719 35.625 48.0938C35.625 47.025 34.9125 46.3125 33.8438 46.3125H28.5C27.4312 46.3125 26.7188 47.025 26.7188 48.0938V51.6562C26.7188 52.725 27.4312 53.4375 28.5 53.4375C40.2562 53.4375 49.875 44.175 49.875 32.775V30.9937V26.7188V24.7594C49.875 13.0031 40.2562 3.5625 28.5 3.5625Z" fill="black"/>
</g>
<defs>
<clipPath id="clip0">
<rect width="57" height="57" fill="white"/>
</clipPath>
</defs>
</svg>
